<svg xmlns="http://www.w3.org/2000/svg" width="50" height="50" viewBox="0 0 113 74.03">
  <g id="Path_59" data-name="Path 59" fill="#161616">
    <path d="M 97.67207336425781 73.14897918701172 L 81.64545440673828 63.57080841064453 L 81.52698516845703 63.49999237060547 L 81.38895416259766 63.49999237060547 L 4 63.49999237060547 C 2.070100069046021 63.49999237060547 0.5 61.92989349365234 0.5 59.99999237060547 L 0.5 4.000008106231689 C 0.5 2.07010817527771 2.070100069046021 0.5000081658363342 4 0.5000081658363342 L 109 0.5000081658363342 C 110.9299011230469 0.5000081658363342 112.5 2.07010817527771 112.5 4.000008106231689 L 112.5 59.99999237060547 C 112.5 61.92989349365234 110.9299011230469 63.49999237060547 109 63.49999237060547 L 98.17207336425781 63.49999237060547 L 97.67207336425781 63.49999237060547 L 97.67207336425781 63.99999237060547 L 97.67207336425781 73.14897918701172 Z" stroke="none"/>
    <path d="M 4 1 C 2.345802307128906 1 1 2.345794677734375 1 4 L 1 60 C 1 61.65419769287109 2.345802307128906 63 4 63 L 81.66500091552734 63 L 97.17207336425781 72.26766204833984 L 97.17207336425781 63 L 109 63 C 110.6541976928711 63 112 61.65419769287109 112 60 L 112 4 C 112 2.345794677734375 110.6541976928711 1 109 1 L 4 1 M 4 0 L 109 0 C 111.2091369628906 0 113 1.790863037109375 113 4 L 113 60 C 113 62.20913696289062 111.2091369628906 64 109 64 L 98.17207336425781 64 L 98.17207336425781 74.0302734375 L 81.38895416259766 64 L 4 64 C 1.790863037109375 64 0 62.20913696289062 0 60 L 0 4 C 0 1.790863037109375 1.790863037109375 0 4 0 Z" stroke="none" fill="#707070"/>
  </g>
</svg>
