<svg xmlns="http://www.w3.org/2000/svg" xmlns:xlink="http://www.w3.org/1999/xlink" width="101" height="100.562" viewBox="0 0 101 100.562">
  <defs>
    <filter id="Path_85" x="0" y="0" width="101" height="100.562" filterUnits="userSpaceOnUse">
      <feOffset dy="3" input="SourceAlpha"/>
      <feGaussianBlur stdDeviation="7" result="blur"/>
      <feFlood flood-color="#4d4d4d" flood-opacity="0.627"/>
      <feComposite operator="in" in2="blur"/>
      <feComposite in="SourceGraphic"/>
    </filter>
  </defs>
  <g id="Group_221" data-name="Group 221" transform="translate(-8 -2129)">
    <g transform="matrix(1, 0, 0, 1, 8, 2129)" filter="url(#Path_85)">
      <g id="Path_85-2" data-name="Path 85" transform="translate(80 66) rotate(180)" fill="#161616">
        <path d="M2,0H12.154V-10.562L26.967,0H57a2,2,0,0,1,2,2V46a2,2,0,0,1-2,2H2a2,2,0,0,1-2-2V2A2,2,0,0,1,2,0Z" stroke="none"/>
        <path d="M 13.1539192199707 -8.620410919189453 L 13.1539192199707 0.9999961853027344 L 2 0.9999961853027344 C 1.448600769042969 0.9999961853027344 1 1.448596954345703 1 1.999996185302734 L 1 46 C 1 46.55139923095703 1.448600769042969 47 2 47 L 57 47 C 57.55139923095703 47 58 46.55139923095703 58 46 L 58 1.999996185302734 C 58 1.448596954345703 57.55139923095703 0.9999961853027344 57 0.9999961853027344 L 26.64669036865234 0.9999961853027344 L 13.1539192199707 -8.620410919189453 M 12.1539192199707 -10.56158065795898 L 26.96669006347656 -3.814697265625e-06 L 57 -3.814697265625e-06 C 58.10456848144531 -3.814697265625e-06 59 0.8954277038574219 59 1.999996185302734 L 59 46 C 59 47.10456848144531 58.10456848144531 48 57 48 L 2 48 C 0.8954315185546875 48 0 47.10456848144531 0 46 L 0 1.999996185302734 C 0 0.8954277038574219 0.8954315185546875 -3.814697265625e-06 2 -3.814697265625e-06 L 12.1539192199707 -3.814697265625e-06 L 12.1539192199707 -10.56158065795898 Z" stroke="none" fill="rgba(112,112,112,0.87)"/>
      </g>
    </g>
    <g id="Ellipse_58" data-name="Ellipse 58" transform="translate(46 2158)" fill="#161616" stroke="#fff" stroke-width="1">
      <circle cx="12.5" cy="12.5" r="12.5" stroke="none"/>
      <circle cx="12.5" cy="12.5" r="12" fill="none"/>
    </g>
    <text id="i" transform="translate(60.49 2175.32)" fill="#fcfcfc" font-size="14" font-family="Montserrat-Bold, Montserrat" font-weight="700" opacity="0.997"><tspan x="-4.214" y="0">i</tspan></text>
  </g>
</svg>
